<svg width="1016" height="349" viewBox="0 0 1016 349" fill="none" xmlns="http://www.w3.org/2000/svg">
<path fill-rule="evenodd" clip-rule="evenodd" d="M0 69.0051L68.9909 -3.09724e-06L85.4271 16.4396L16.4362 85.4447L0 69.0051ZM2.57324 176.006C2.57324 153.652 6.81238 132.288 14.5305 112.674L41.8849 140.034C38.8065 151.505 37.1649 163.564 37.1649 176.006C37.1649 252.439 99.1137 314.401 175.531 314.401C251.949 314.401 313.898 252.439 313.898 176.006C313.898 99.5724 251.949 37.6107 175.531 37.6107C163.096 37.6107 151.044 39.2516 139.579 42.3286L112.223 14.9675C131.83 7.25045 153.186 3.01196 175.531 3.01196C271.054 3.01196 348.49 80.464 348.49 176.006C348.49 271.548 271.054 349 175.531 349C80.0093 349 2.57324 271.548 2.57324 176.006ZM98.6576 29.6787L29.6719 98.6787L46.108 115.118L115.094 46.1183L98.6576 29.6787ZM59.3262 128.348L128.317 59.3426L144.753 75.7822L75.7623 144.787L59.3262 128.348ZM391.881 246.537V85.4448H425.751V246.537H391.881ZM452.685 195.367V85.4448H484.187V128.561H520.188V155.568H484.187V195.604C484.187 210.529 487.503 219.768 500.056 219.768C504.556 219.768 517.109 219.057 520.188 218.346V246.537C514.504 247.722 500.529 248.67 496.266 248.67C465.712 248.433 452.685 229.481 452.685 195.367ZM573.237 128.561H541.736V246.537H573.237V175.941C580.106 164.57 593.133 157.937 607.581 157.937C611.371 157.937 615.16 158.41 619.187 159.358V128.798C614.687 127.613 610.423 126.902 606.16 126.902C592.659 126.902 581.527 133.536 573.237 143.486V128.561ZM628.787 187.312C628.787 154.146 656.498 126.429 688.71 126.429C723.527 126.429 746.739 149.171 749.344 187.786C749.581 191.339 749.581 197.259 749.581 200.813V200.816H663.367C666.446 211.95 677.578 221.663 691.552 221.663C703.869 221.663 714.527 214.556 719.501 206.264L744.37 218.583C733.712 236.588 716.185 248.67 691.316 248.67C651.288 248.67 628.787 221.189 628.787 187.312ZM662.893 177.599H715.711C714.527 165.28 705.053 153.672 690.131 153.672C674.736 153.672 665.499 164.57 662.893 177.599ZM769.336 128.561V246.537H800.837V170.492C808.18 161.253 816.707 156.278 826.181 156.278C834.707 156.278 844.418 159.832 844.418 177.836V246.537H876.867V165.28C876.867 143.486 860.051 126.429 837.786 126.429C821.444 126.429 809.601 132.588 800.837 141.827V128.561H769.336ZM951.34 248.67C918.418 248.67 896.864 221.189 896.864 187.312C896.864 154.146 918.418 126.429 951.34 126.429C966.499 126.429 977.157 132.588 984.5 140.88V85.4448H1016V246.537H984.5V234.456C977.157 242.747 966.499 248.67 951.34 248.67ZM929.313 187.312C929.313 202.948 937.366 219.294 955.841 219.294C967.446 219.294 979.526 210.765 984.5 202V172.861C979.526 164.096 967.446 155.804 955.841 155.804C937.366 155.804 929.313 171.677 929.313 187.312ZM599.598 289.428V315.235H595.146V289.428H599.598ZM451.583 315.235V297.056H447.132V315.235H451.583ZM447.502 290.654C447.054 291.091 446.83 291.64 446.83 292.301C446.83 292.95 447.054 293.494 447.502 293.931C447.961 294.367 448.577 294.586 449.349 294.586C450.122 294.586 450.732 294.367 451.18 293.931C451.639 293.494 451.869 292.95 451.869 292.301C451.869 291.64 451.639 291.091 451.18 290.654C450.732 290.217 450.122 289.999 449.349 289.999C448.577 289.999 447.961 290.217 447.502 290.654ZM396.5 290.772V315.235H391.881V290.772H396.5ZM404.816 315.235V302.349C404.918 302.154 405.03 301.969 405.152 301.794C405.499 301.312 405.925 300.937 406.429 300.668C406.944 300.388 407.543 300.248 408.226 300.248C408.887 300.248 409.441 300.349 409.889 300.55C410.348 300.752 410.695 301.094 410.93 301.575C411.177 302.057 411.3 302.712 411.3 303.541V315.235H415.768V303.575C415.768 302.309 415.628 301.245 415.348 300.382C415.079 299.509 414.688 298.803 414.172 298.265C413.668 297.728 413.064 297.336 412.358 297.089C411.653 296.843 410.863 296.72 409.99 296.72C408.915 296.72 407.94 296.927 407.067 297.341C406.193 297.756 405.437 298.349 404.799 299.122C404.765 299.164 404.732 299.206 404.699 299.248L404.547 297.056H400.381V315.235H404.816ZM428.687 309.237C428.888 309.539 428.989 309.881 428.989 310.261C428.989 310.676 428.871 311.046 428.636 311.37C428.401 311.684 428.054 311.936 427.595 312.126C427.135 312.306 426.57 312.395 425.898 312.395C425.305 312.395 424.739 312.306 424.201 312.126C423.675 311.936 423.238 311.628 422.891 311.202C422.544 310.777 422.354 310.211 422.32 309.505H418.07C418.07 310.502 418.367 311.466 418.961 312.395C419.554 313.314 420.428 314.075 421.581 314.68C422.734 315.274 424.145 315.571 425.814 315.571C426.968 315.571 428.003 315.436 428.922 315.168C429.84 314.887 430.629 314.501 431.29 314.008C431.951 313.515 432.455 312.939 432.802 312.278C433.149 311.606 433.323 310.866 433.323 310.06C433.323 308.929 433.037 307.999 432.466 307.271C431.895 306.543 431.1 305.96 430.081 305.523C429.073 305.075 427.891 304.717 426.536 304.448C425.853 304.303 425.277 304.151 424.806 303.995C424.347 303.838 423.983 303.664 423.714 303.474C423.446 303.283 423.25 303.076 423.126 302.852C423.014 302.617 422.958 302.354 422.958 302.062C422.958 301.67 423.065 301.312 423.278 300.987C423.49 300.662 423.804 300.399 424.218 300.197C424.644 299.996 425.165 299.895 425.78 299.895C426.464 299.895 427.029 300.018 427.477 300.265C427.925 300.5 428.255 300.813 428.468 301.206C428.692 301.598 428.804 302.034 428.804 302.516H433.239C433.239 301.418 432.942 300.433 432.348 299.559C431.755 298.674 430.898 297.98 429.778 297.476C428.67 296.972 427.343 296.72 425.797 296.72C424.689 296.72 423.692 296.871 422.807 297.173C421.923 297.464 421.172 297.868 420.556 298.383C419.94 298.887 419.47 299.475 419.145 300.147C418.821 300.808 418.658 301.514 418.658 302.264C418.658 303.037 418.815 303.72 419.128 304.314C419.453 304.896 419.901 305.406 420.472 305.843C421.043 306.268 421.727 306.632 422.522 306.935C423.317 307.237 424.185 307.489 425.125 307.691C426.189 307.915 426.996 308.156 427.544 308.413C428.104 308.66 428.485 308.934 428.687 309.237ZM444.612 297.056V300.248H441.437V309.993C441.437 310.53 441.51 310.945 441.655 311.236C441.801 311.527 442.019 311.723 442.31 311.824C442.601 311.925 442.949 311.975 443.352 311.975C443.643 311.975 443.912 311.958 444.158 311.925C444.404 311.891 444.612 311.858 444.78 311.824L444.796 315.151C444.427 315.274 444.007 315.375 443.537 315.453C443.077 315.532 442.557 315.571 441.974 315.571C440.978 315.571 440.104 315.403 439.354 315.067C438.604 314.719 438.021 314.165 437.607 313.403C437.193 312.63 436.985 311.611 436.985 310.345V300.248H434.197V297.056H436.985V292.586H441.437V297.056H444.612ZM463.729 297.056V300.248H460.554V309.993C460.554 310.53 460.627 310.945 460.773 311.236C460.918 311.527 461.137 311.723 461.428 311.824C461.719 311.925 462.066 311.975 462.469 311.975C462.76 311.975 463.029 311.958 463.276 311.925C463.375 311.911 463.469 311.898 463.556 311.884L463.613 311.875C463.641 311.87 463.669 311.866 463.697 311.861L463.761 311.85C463.79 311.845 463.818 311.839 463.845 311.834L463.897 311.824L463.914 315.151C463.544 315.274 463.124 315.375 462.654 315.453C462.195 315.532 461.674 315.571 461.092 315.571C460.095 315.571 459.222 315.403 458.471 315.067C457.721 314.719 457.139 314.165 456.724 313.403C456.31 312.63 456.103 311.611 456.103 310.345V300.248H453.314V297.056H456.103V292.586H460.554V297.056H463.729ZM476.967 313.357C476.429 314.026 475.763 314.557 474.968 314.949C474.105 315.364 473.086 315.571 471.91 315.571C471.014 315.571 470.197 315.448 469.458 315.201C468.719 314.943 468.08 314.546 467.543 314.008C467.017 313.459 466.608 312.759 466.317 311.908C466.025 311.046 465.88 310.009 465.88 308.8V297.056H470.315V308.833C470.315 309.438 470.382 309.942 470.516 310.345C470.662 310.749 470.858 311.079 471.104 311.337C471.362 311.583 471.658 311.762 471.994 311.874C472.341 311.975 472.711 312.026 473.103 312.026C474.178 312.026 475.024 311.813 475.639 311.387C476.15 311.031 476.542 310.579 476.815 310.03V297.056H481.284V315.235H477.084L476.967 313.357ZM493.127 297.056V300.248H489.952V309.993C489.952 310.53 490.025 310.945 490.17 311.236C490.316 311.527 490.534 311.723 490.825 311.824C491.117 311.925 491.464 311.975 491.867 311.975C492.158 311.975 492.427 311.958 492.673 311.925C492.77 311.912 492.861 311.898 492.945 311.885C493.013 311.875 493.076 311.864 493.136 311.854C493.192 311.844 493.245 311.834 493.295 311.824L493.312 315.151C492.942 315.274 492.522 315.375 492.052 315.453C491.593 315.532 491.072 315.571 490.49 315.571C489.493 315.571 488.619 315.403 487.869 315.067C487.119 314.719 486.536 314.165 486.122 313.403C485.708 312.63 485.501 311.611 485.501 310.345V300.248H482.712V297.056H485.501V292.586H489.952V297.056H493.127ZM494.169 305.977V306.33C494.169 307.652 494.359 308.878 494.74 310.009C495.121 311.13 495.675 312.11 496.403 312.95C497.131 313.779 498.027 314.423 499.091 314.882C500.155 315.341 501.358 315.571 502.702 315.571C504.057 315.571 505.261 315.341 506.314 314.882C507.367 314.423 508.257 313.779 508.985 312.95C509.713 312.11 510.267 311.13 510.648 310.009C511.028 308.878 511.219 307.652 511.219 306.33V305.977C511.219 304.644 511.028 303.418 510.648 302.298C510.267 301.166 509.713 300.186 508.985 299.357C508.257 298.529 507.361 297.884 506.297 297.425C505.244 296.955 504.035 296.72 502.669 296.72C501.325 296.72 500.127 296.955 499.074 297.425C498.021 297.884 497.131 298.529 496.403 299.357C495.675 300.186 495.121 301.166 494.74 302.298C494.359 303.418 494.169 304.644 494.169 305.977ZM498.604 306.33V305.977C498.604 305.193 498.682 304.459 498.839 303.776C498.996 303.082 499.236 302.471 499.561 301.945C499.886 301.407 500.306 300.987 500.821 300.685C501.336 300.371 501.952 300.214 502.669 300.214C503.397 300.214 504.018 300.371 504.533 300.685C505.06 300.987 505.485 301.407 505.81 301.945C506.146 302.471 506.392 303.082 506.549 303.776C506.706 304.459 506.784 305.193 506.784 305.977V306.33C506.784 307.125 506.706 307.87 506.549 308.565C506.392 309.259 506.146 309.869 505.81 310.396C505.485 310.922 505.065 311.337 504.55 311.639C504.035 311.93 503.419 312.076 502.702 312.076C501.974 312.076 501.347 311.93 500.821 311.639C500.306 311.337 499.886 310.922 499.561 310.396C499.236 309.869 498.996 309.259 498.839 308.565C498.682 307.87 498.604 307.125 498.604 306.33ZM526.07 322.224V313.592C526.558 314.146 527.123 314.593 527.766 314.932C528.595 315.358 529.569 315.571 530.689 315.571C531.831 315.571 532.839 315.341 533.713 314.882C534.597 314.411 535.336 313.762 535.93 312.933C536.523 312.093 536.971 311.113 537.274 309.993C537.587 308.861 537.744 307.635 537.744 306.313V305.96C537.744 304.571 537.593 303.311 537.291 302.18C536.988 301.049 536.535 300.074 535.93 299.257C535.325 298.439 534.581 297.812 533.696 297.375C532.822 296.938 531.809 296.72 530.655 296.72C529.547 296.72 528.578 296.938 527.749 297.375C527.046 297.751 526.433 298.264 525.912 298.914L525.734 297.056H521.618V322.224H526.07ZM527.296 311.488C526.767 311.118 526.359 310.628 526.07 310.019V302.256C526.197 301.996 526.342 301.758 526.506 301.542C526.82 301.127 527.223 300.808 527.716 300.584C528.209 300.36 528.796 300.248 529.48 300.248C530.163 300.248 530.745 300.393 531.227 300.685C531.708 300.976 532.1 301.385 532.402 301.911C532.705 302.426 532.929 303.031 533.074 303.726C533.22 304.409 533.293 305.154 533.293 305.96V306.313C533.293 307.097 533.226 307.836 533.091 308.531C532.957 309.225 532.738 309.841 532.436 310.379C532.134 310.906 531.742 311.32 531.26 311.622C530.779 311.925 530.196 312.076 529.513 312.076C528.606 312.076 527.867 311.88 527.296 311.488ZM550.477 313.484C550.312 313.669 550.133 313.85 549.94 314.025C549.447 314.473 548.854 314.843 548.16 315.134C547.465 315.425 546.659 315.571 545.741 315.571C544.565 315.571 543.512 315.336 542.583 314.865C541.653 314.395 540.92 313.751 540.382 312.933C539.845 312.115 539.576 311.186 539.576 310.144C539.576 309.181 539.755 308.329 540.113 307.59C540.472 306.851 541.004 306.229 541.709 305.725C542.415 305.21 543.288 304.823 544.33 304.566C545.382 304.297 546.586 304.163 547.941 304.163H550.31V302.986C550.31 302.37 550.203 301.838 549.991 301.39C549.778 300.942 549.453 300.595 549.016 300.349C548.58 300.102 548.025 299.979 547.353 299.979C546.76 299.979 546.239 300.08 545.791 300.281C545.354 300.483 545.018 300.769 544.783 301.138C544.548 301.497 544.43 301.911 544.43 302.382H539.979C539.979 301.631 540.158 300.92 540.516 300.248C540.875 299.565 541.384 298.96 542.045 298.433C542.717 297.896 543.518 297.476 544.447 297.173C545.388 296.871 546.441 296.72 547.605 296.72C548.983 296.72 550.209 296.955 551.284 297.425C552.37 297.884 553.221 298.579 553.837 299.509C554.464 300.438 554.778 301.609 554.778 303.02V310.95C554.778 311.858 554.834 312.636 554.946 313.286C555.069 313.924 555.248 314.479 555.483 314.949V315.235H550.965C550.752 314.775 550.59 314.193 550.478 313.487L550.477 313.484ZM550.31 310.105C550.239 310.239 550.155 310.375 550.058 310.514C549.733 310.973 549.279 311.365 548.697 311.69C548.115 312.003 547.432 312.16 546.648 312.16C546.11 312.16 545.64 312.059 545.237 311.858C544.845 311.645 544.542 311.359 544.33 311.001C544.128 310.642 544.027 310.239 544.027 309.791C544.027 309.332 544.111 308.923 544.279 308.565C544.447 308.195 544.699 307.881 545.035 307.624C545.371 307.355 545.802 307.153 546.329 307.019C546.855 306.873 547.465 306.8 548.16 306.8H550.31V310.105ZM562.523 315.235V303.033C562.693 302.639 562.917 302.299 563.194 302.012C563.542 301.665 563.973 301.402 564.488 301.222C565.003 301.032 565.602 300.937 566.285 300.937C566.554 300.937 566.84 300.948 567.142 300.97C567.456 300.993 567.735 301.026 567.982 301.071L568.049 296.938C567.881 296.871 567.651 296.82 567.36 296.787C567.08 296.742 566.817 296.72 566.571 296.72C565.686 296.72 564.902 296.927 564.219 297.341C563.547 297.744 562.987 298.316 562.539 299.055C562.501 299.118 562.463 299.183 562.426 299.248L562.287 297.056H558.088V315.235H562.523ZM579.405 313.484C579.239 313.669 579.06 313.85 578.868 314.025C578.375 314.473 577.781 314.843 577.087 315.134C576.393 315.425 575.586 315.571 574.668 315.571C573.492 315.571 572.44 315.336 571.51 314.865C570.581 314.395 569.847 313.751 569.31 312.933C568.772 312.115 568.503 311.186 568.503 310.144C568.503 309.181 568.682 308.329 569.041 307.59C569.399 306.851 569.931 306.229 570.637 305.725C571.342 305.21 572.216 304.823 573.257 304.566C574.31 304.297 575.514 304.163 576.869 304.163H579.237V302.986C579.237 302.37 579.131 301.838 578.918 301.39C578.705 300.942 578.38 300.595 577.944 300.349C577.507 300.102 576.953 299.979 576.281 299.979C575.687 299.979 575.166 300.08 574.718 300.281C574.282 300.483 573.946 300.769 573.711 301.138C573.475 301.497 573.358 301.911 573.358 302.382H568.906C568.906 301.631 569.086 300.92 569.444 300.248C569.802 299.565 570.312 298.96 570.973 298.433C571.644 297.896 572.445 297.476 573.375 297.173C574.315 296.871 575.368 296.72 576.533 296.72C577.91 296.72 579.136 296.955 580.211 297.425C581.298 297.884 582.149 298.579 582.765 299.509C583.392 300.438 583.705 301.609 583.705 303.02V310.95C583.705 311.858 583.761 312.636 583.873 313.286C583.997 313.924 584.176 314.479 584.411 314.949V315.235H579.892C579.68 314.775 579.517 314.193 579.405 313.487L579.405 313.484ZM579.237 310.105C579.167 310.239 579.083 310.375 578.985 310.514C578.66 310.973 578.207 311.365 577.625 311.69C577.042 312.003 576.359 312.16 575.575 312.16C575.038 312.16 574.567 312.059 574.164 311.858C573.772 311.645 573.47 311.359 573.257 311.001C573.055 310.642 572.955 310.239 572.955 309.791C572.955 309.332 573.039 308.923 573.207 308.565C573.375 308.195 573.627 307.881 573.963 307.624C574.299 307.355 574.73 307.153 575.256 307.019C575.782 306.873 576.393 306.8 577.087 306.8H579.237V310.105ZM613.322 313.484C613.156 313.669 612.977 313.85 612.785 314.025C612.292 314.473 611.698 314.843 611.004 315.134C610.31 315.425 609.503 315.571 608.585 315.571C607.409 315.571 606.357 315.336 605.427 314.865C604.498 314.395 603.764 313.751 603.227 312.933C602.689 312.115 602.42 311.186 602.42 310.144C602.42 309.181 602.599 308.329 602.958 307.59C603.316 306.851 603.848 306.229 604.554 305.725C605.259 305.21 606.133 304.823 607.174 304.566C608.227 304.297 609.431 304.163 610.786 304.163H613.154V302.986C613.154 302.37 613.048 301.838 612.835 301.39C612.622 300.942 612.297 300.595 611.861 300.349C611.424 300.102 610.87 299.979 610.198 299.979C609.604 299.979 609.083 300.08 608.636 300.281C608.199 300.483 607.863 300.769 607.628 301.138C607.393 301.497 607.275 301.911 607.275 302.382H602.823C602.823 301.631 603.003 300.92 603.361 300.248C603.719 299.565 604.229 298.96 604.89 298.433C605.562 297.896 606.362 297.476 607.292 297.173C608.232 296.871 609.285 296.72 610.45 296.72C611.827 296.72 613.053 296.955 614.128 297.425C615.215 297.884 616.066 298.579 616.682 299.509C617.309 300.438 617.622 301.609 617.622 303.02V310.95C617.622 311.858 617.678 312.636 617.79 313.286C617.914 313.924 618.093 314.479 618.328 314.949V315.235H613.809C613.597 314.775 613.434 314.193 613.322 313.487L613.322 313.484ZM613.154 310.105C613.084 310.239 613 310.375 612.902 310.514C612.577 310.973 612.124 311.365 611.542 311.69C610.959 312.003 610.276 312.16 609.492 312.16C608.955 312.16 608.484 312.059 608.081 311.858C607.689 311.645 607.387 311.359 607.174 311.001C606.973 310.642 606.872 310.239 606.872 309.791C606.872 309.332 606.956 308.923 607.124 308.565C607.292 308.195 607.544 307.881 607.88 307.624C608.216 307.355 608.647 307.153 609.173 307.019C609.699 306.873 610.31 306.8 611.004 306.8H613.154V310.105ZM629.147 290.772H638.033C639.892 290.772 641.488 291.052 642.821 291.612C644.153 292.172 645.178 293.001 645.895 294.099C646.611 295.196 646.97 296.546 646.97 298.148C646.97 299.413 646.746 300.511 646.298 301.441C645.85 302.37 645.217 303.149 644.4 303.776C643.841 304.211 643.213 304.581 642.515 304.886L647.911 314.999V315.235H642.955L638.18 305.994H633.767V315.235H629.147V290.772ZM638.084 302.348H633.767V294.418H638.033C639.008 294.418 639.814 294.58 640.452 294.905C641.091 295.23 641.566 295.695 641.88 296.299C642.194 296.893 642.35 297.599 642.35 298.417C642.35 299.178 642.188 299.856 641.863 300.449C641.55 301.043 641.079 301.508 640.452 301.844C639.825 302.18 639.036 302.348 638.084 302.348ZM654.446 314.899C655.543 315.347 656.78 315.571 658.158 315.571C659.345 315.571 660.392 315.414 661.299 315.1C662.206 314.775 662.979 314.355 663.617 313.84C664.267 313.325 664.782 312.787 665.163 312.227L662.929 309.909C662.369 310.626 661.708 311.169 660.946 311.538C660.196 311.897 659.356 312.076 658.427 312.076C657.688 312.076 657.027 311.947 656.445 311.69C655.873 311.421 655.381 311.051 654.966 310.581C654.563 310.099 654.255 309.533 654.042 308.884C653.906 308.445 653.816 307.98 653.772 307.489H665.532V305.624C665.532 304.303 665.364 303.098 665.028 302.012C664.692 300.914 664.194 299.973 663.533 299.189C662.873 298.405 662.049 297.8 661.064 297.375C660.078 296.938 658.942 296.72 657.654 296.72C656.411 296.72 655.274 296.944 654.244 297.392C653.214 297.84 652.329 298.478 651.59 299.307C650.851 300.136 650.28 301.127 649.877 302.281C649.473 303.423 649.272 304.695 649.272 306.095V306.767C649.272 307.999 649.473 309.153 649.877 310.228C650.291 311.292 650.879 312.227 651.64 313.034C652.413 313.829 653.348 314.451 654.446 314.899ZM653.847 304.431C653.882 304.182 653.924 303.941 653.975 303.709C654.132 302.992 654.367 302.376 654.681 301.861C655.005 301.334 655.409 300.931 655.89 300.651C656.383 300.36 656.96 300.214 657.62 300.214C658.438 300.214 659.104 300.393 659.619 300.752C660.134 301.099 660.515 301.57 660.762 302.163C661.008 302.746 661.142 303.39 661.165 304.095V304.431H653.847ZM677.812 310.261C677.812 309.881 677.711 309.539 677.51 309.237C677.308 308.934 676.927 308.66 676.368 308.413C675.819 308.156 675.013 307.915 673.949 307.691C673.008 307.489 672.14 307.237 671.345 306.935C670.55 306.632 669.867 306.268 669.296 305.843C668.724 305.406 668.277 304.896 667.952 304.314C667.638 303.72 667.481 303.037 667.481 302.264C667.481 301.514 667.644 300.808 667.969 300.147C668.293 299.475 668.764 298.887 669.38 298.383C669.996 297.868 670.746 297.464 671.631 297.173C672.515 296.871 673.512 296.72 674.621 296.72C676.166 296.72 677.493 296.972 678.602 297.476C679.722 297.98 680.578 298.674 681.172 299.559C681.765 300.433 682.062 301.418 682.062 302.516H677.627C677.627 302.034 677.515 301.598 677.291 301.206C677.079 300.813 676.748 300.5 676.3 300.265C675.852 300.018 675.287 299.895 674.604 299.895C673.988 299.895 673.467 299.996 673.042 300.197C672.627 300.399 672.314 300.662 672.101 300.987C671.888 301.312 671.782 301.67 671.782 302.062C671.782 302.354 671.838 302.617 671.95 302.852C672.073 303.076 672.269 303.283 672.538 303.474C672.806 303.664 673.17 303.838 673.63 303.995C674.1 304.151 674.677 304.303 675.36 304.448C676.715 304.717 677.896 305.075 678.904 305.523C679.923 305.96 680.718 306.543 681.289 307.271C681.86 307.999 682.146 308.929 682.146 310.06C682.146 310.866 681.972 311.606 681.625 312.278C681.278 312.939 680.774 313.515 680.114 314.008C679.453 314.501 678.663 314.887 677.745 315.168C676.827 315.436 675.791 315.571 674.637 315.571C672.969 315.571 671.558 315.274 670.404 314.68C669.251 314.075 668.377 313.314 667.784 312.395C667.19 311.466 666.894 310.502 666.894 309.505H671.143C671.177 310.211 671.367 310.777 671.715 311.202C672.062 311.628 672.498 311.936 673.025 312.126C673.562 312.306 674.128 312.395 674.721 312.395C675.393 312.395 675.959 312.306 676.418 312.126C676.877 311.936 677.224 311.684 677.459 311.37C677.695 311.046 677.812 310.676 677.812 310.261ZM689.538 315.235V297.056H685.086V315.235H689.538ZM685.456 290.654C685.008 291.091 684.784 291.64 684.784 292.301C684.784 292.95 685.008 293.494 685.456 293.931C685.915 294.367 686.531 294.586 687.304 294.586C688.076 294.586 688.687 294.367 689.135 293.931C689.594 293.494 689.823 292.95 689.823 292.301C689.823 291.64 689.594 291.091 689.135 290.654C688.687 290.217 688.076 289.999 687.304 289.999C686.531 289.999 685.915 290.217 685.456 290.654ZM697.786 289.428V315.235H693.335V289.428H697.786ZM706.035 315.235V297.056H701.583V315.235H706.035ZM701.953 290.654C701.505 291.091 701.281 291.64 701.281 292.301C701.281 292.95 701.505 293.494 701.953 293.931C702.412 294.367 703.028 294.586 703.801 294.586C704.573 294.586 705.184 294.367 705.632 293.931C706.091 293.494 706.32 292.95 706.32 292.301C706.32 291.64 706.091 291.091 705.632 290.654C705.184 290.217 704.573 289.999 703.801 289.999C703.028 289.999 702.412 290.217 701.953 290.654ZM717.744 315.571C716.366 315.571 715.129 315.347 714.031 314.899C712.934 314.451 711.999 313.829 711.226 313.034C710.464 312.227 709.877 311.292 709.462 310.228C709.059 309.153 708.857 307.999 708.857 306.767V306.095C708.857 304.695 709.059 303.423 709.462 302.281C709.865 301.127 710.437 300.136 711.176 299.307C711.915 298.478 712.799 297.84 713.83 297.392C714.86 296.944 715.997 296.72 717.24 296.72C718.528 296.72 719.664 296.938 720.65 297.375C721.635 297.8 722.458 298.405 723.119 299.189C723.78 299.973 724.278 300.914 724.614 302.012C724.95 303.098 725.118 304.303 725.118 305.624V307.489H713.357C713.402 307.98 713.492 308.445 713.628 308.884C713.841 309.533 714.149 310.099 714.552 310.581C714.966 311.051 715.459 311.421 716.03 311.69C716.613 311.947 717.273 312.076 718.012 312.076C718.942 312.076 719.782 311.897 720.532 311.538C721.294 311.169 721.954 310.626 722.514 309.909L724.748 312.227C724.368 312.787 723.852 313.325 723.203 313.84C722.565 314.355 721.792 314.775 720.885 315.1C719.978 315.414 718.931 315.571 717.744 315.571ZM713.561 303.709C713.51 303.941 713.467 304.182 713.433 304.431H720.75V304.095C720.728 303.39 720.594 302.746 720.347 302.163C720.101 301.57 719.72 301.099 719.205 300.752C718.69 300.393 718.024 300.214 717.206 300.214C716.545 300.214 715.969 300.36 715.476 300.651C714.994 300.931 714.591 301.334 714.266 301.861C713.953 302.376 713.718 302.992 713.561 303.709ZM731.754 302.349V315.235H727.319V297.056H731.485L731.637 299.248C731.67 299.206 731.703 299.164 731.737 299.122C732.375 298.349 733.131 297.756 734.005 297.341C734.878 296.927 735.852 296.72 736.928 296.72C737.801 296.72 738.591 296.843 739.296 297.089C740.002 297.336 740.606 297.728 741.11 298.265C741.625 298.803 742.017 299.509 742.286 300.382C742.566 301.245 742.706 302.309 742.706 303.575V315.235H738.238V303.541C738.238 302.712 738.115 302.057 737.868 301.575C737.633 301.094 737.286 300.752 736.827 300.55C736.379 300.349 735.824 300.248 735.164 300.248C734.481 300.248 733.882 300.388 733.366 300.668C732.862 300.937 732.437 301.312 732.09 301.794C731.967 301.969 731.855 302.154 731.754 302.349ZM753.39 312.076C754.017 312.076 754.577 311.953 755.07 311.706C755.563 311.46 755.955 311.113 756.246 310.665C756.548 310.217 756.711 309.696 756.733 309.102H760.916C760.893 310.334 760.546 311.438 759.874 312.412C759.202 313.387 758.306 314.159 757.187 314.731C756.078 315.291 754.835 315.571 753.457 315.571C752.058 315.571 750.837 315.336 749.795 314.865C748.754 314.395 747.886 313.739 747.192 312.899C746.509 312.059 745.994 311.085 745.646 309.976C745.31 308.867 745.142 307.68 745.142 306.414V305.876C745.142 304.611 745.31 303.423 745.646 302.314C745.994 301.206 746.509 300.231 747.192 299.391C747.886 298.551 748.754 297.896 749.795 297.425C750.837 296.955 752.052 296.72 753.441 296.72C754.908 296.72 756.195 297.005 757.304 297.576C758.424 298.148 759.297 298.954 759.925 299.996C760.563 301.038 760.893 302.264 760.916 303.675H756.733C756.711 303.026 756.565 302.443 756.296 301.928C756.028 301.413 755.647 300.998 755.154 300.685C754.661 300.371 754.062 300.214 753.357 300.214C752.606 300.214 751.979 300.371 751.475 300.685C750.982 300.998 750.596 301.43 750.316 301.978C750.047 302.516 749.857 303.121 749.745 303.793C749.644 304.454 749.594 305.148 749.594 305.876V306.414C749.594 307.153 749.644 307.859 749.745 308.531C749.857 309.203 750.047 309.808 750.316 310.345C750.596 310.872 750.982 311.292 751.475 311.606C751.979 311.919 752.617 312.076 753.39 312.076ZM767.888 315.235V297.056H763.436V315.235H767.888ZM763.806 290.654C763.358 291.091 763.134 291.64 763.134 292.301C763.134 292.95 763.358 293.494 763.806 293.931C764.265 294.367 764.881 294.586 765.653 294.586C766.426 294.586 767.036 294.367 767.484 293.931C767.943 293.494 768.173 292.95 768.173 292.301C768.173 291.64 767.943 291.091 767.484 290.654C767.036 290.217 766.426 289.999 765.653 289.999C764.881 289.999 764.265 290.217 763.806 290.654ZM781.075 314.025C781.267 313.85 781.446 313.669 781.612 313.484L781.612 313.487C781.724 314.193 781.886 314.775 782.099 315.235H786.618V314.949C786.383 314.479 786.204 313.924 786.08 313.286C785.968 312.636 785.912 311.858 785.912 310.95V303.02C785.912 301.609 785.599 300.438 784.972 299.509C784.356 298.579 783.505 297.884 782.418 297.425C781.343 296.955 780.117 296.72 778.74 296.72C777.575 296.72 776.522 296.871 775.582 297.173C774.652 297.476 773.851 297.896 773.18 298.433C772.519 298.96 772.009 299.565 771.651 300.248C771.293 300.92 771.113 301.631 771.113 302.382H775.565C775.565 301.911 775.682 301.497 775.918 301.138C776.153 300.769 776.489 300.483 776.925 300.281C777.373 300.08 777.894 299.979 778.488 299.979C779.16 299.979 779.714 300.102 780.151 300.349C780.587 300.595 780.912 300.942 781.125 301.39C781.338 301.838 781.444 302.37 781.444 302.986V304.163H779.076C777.721 304.163 776.517 304.297 775.464 304.566C774.423 304.823 773.549 305.21 772.844 305.725C772.138 306.229 771.606 306.851 771.248 307.59C770.889 308.329 770.71 309.181 770.71 310.144C770.71 311.186 770.979 312.115 771.517 312.933C772.054 313.751 772.788 314.395 773.717 314.865C774.647 315.336 775.699 315.571 776.875 315.571C777.793 315.571 778.6 315.425 779.294 315.134C779.988 314.843 780.582 314.473 781.075 314.025ZM781.192 310.514C781.29 310.375 781.374 310.239 781.444 310.105V306.8H779.294C778.6 306.8 777.989 306.873 777.463 307.019C776.937 307.153 776.505 307.355 776.17 307.624C775.834 307.881 775.582 308.195 775.414 308.565C775.246 308.923 775.162 309.332 775.162 309.791C775.162 310.239 775.262 310.642 775.464 311.001C775.677 311.359 775.979 311.645 776.371 311.858C776.774 312.059 777.245 312.16 777.782 312.16C778.566 312.16 779.249 312.003 779.831 311.69C780.414 311.365 780.867 310.973 781.192 310.514ZM807.28 313.484C807.115 313.669 806.936 313.85 806.743 314.025C806.25 314.473 805.657 314.843 804.963 315.134C804.268 315.425 803.462 315.571 802.544 315.571C801.368 315.571 800.315 315.336 799.386 314.865C798.456 314.395 797.723 313.751 797.185 312.933C796.648 312.115 796.379 311.186 796.379 310.144C796.379 309.181 796.558 308.329 796.916 307.59C797.275 306.851 797.807 306.229 798.512 305.725C799.218 305.21 800.091 304.823 801.133 304.566C802.185 304.297 803.389 304.163 804.744 304.163H807.113V302.986C807.113 302.37 807.006 301.838 806.794 301.39C806.581 300.942 806.256 300.595 805.819 300.349C805.383 300.102 804.828 299.979 804.156 299.979C803.563 299.979 803.042 300.08 802.594 300.281C802.157 300.483 801.821 300.769 801.586 301.138C801.351 301.497 801.233 301.911 801.233 302.382H796.782C796.782 301.631 796.961 300.92 797.32 300.248C797.678 299.565 798.187 298.96 798.848 298.433C799.52 297.896 800.321 297.476 801.25 297.173C802.191 296.871 803.244 296.72 804.408 296.72C805.786 296.72 807.012 296.955 808.087 297.425C809.173 297.884 810.024 298.579 810.64 299.509C811.267 300.438 811.581 301.609 811.581 303.02V310.95C811.581 311.858 811.637 312.636 811.749 313.286C811.872 313.924 812.051 314.479 812.286 314.949V315.235H807.768C807.555 314.775 807.393 314.193 807.281 313.487L807.28 313.484ZM807.113 310.105C807.042 310.239 806.958 310.375 806.861 310.514C806.536 310.973 806.082 311.365 805.5 311.69C804.918 312.003 804.235 312.16 803.451 312.16C802.913 312.16 802.443 312.059 802.04 311.858C801.648 311.645 801.345 311.359 801.133 311.001C800.931 310.642 800.83 310.239 800.83 309.791C800.83 309.332 800.914 308.923 801.082 308.565C801.25 308.195 801.502 307.881 801.838 307.624C802.174 307.355 802.605 307.153 803.132 307.019C803.658 306.873 804.268 306.8 804.963 306.8H807.113V310.105ZM819.242 315.235V302.349C819.343 302.154 819.455 301.969 819.577 301.794C819.925 301.312 820.35 300.937 820.854 300.668C821.369 300.388 821.968 300.248 822.651 300.248C823.312 300.248 823.867 300.349 824.315 300.55C824.774 300.752 825.121 301.094 825.356 301.575C825.602 302.057 825.726 302.712 825.726 303.541V315.235H830.194V303.575C830.194 302.309 830.054 301.245 829.774 300.382C829.505 299.509 829.113 298.803 828.598 298.265C828.094 297.728 827.489 297.336 826.784 297.089C826.078 296.843 825.289 296.72 824.415 296.72C823.34 296.72 822.366 296.927 821.492 297.341C820.619 297.756 819.863 298.349 819.225 299.122C819.2 299.153 819.176 299.183 819.151 299.214L819.125 299.248L818.973 297.056H814.807V315.235H819.242ZM842.02 300.248V297.056H838.845V292.586H834.394V297.056H831.605V300.248H834.394V310.345C834.394 311.611 834.601 312.63 835.015 313.403C835.43 314.165 836.012 314.719 836.762 315.067C837.513 315.403 838.386 315.571 839.383 315.571C839.965 315.571 840.486 315.532 840.945 315.453C841.415 315.375 841.835 315.274 842.205 315.151L842.188 311.824C842.02 311.858 841.813 311.891 841.567 311.925C841.32 311.958 841.052 311.975 840.76 311.975C840.357 311.975 840.01 311.925 839.719 311.824C839.428 311.723 839.209 311.527 839.064 311.236C838.918 310.945 838.845 310.53 838.845 309.993V300.248H842.02ZM852.452 315.571C851.075 315.571 849.838 315.347 848.74 314.899C847.643 314.451 846.708 313.829 845.935 313.034C845.173 312.227 844.585 311.292 844.171 310.228C843.768 309.153 843.566 307.999 843.566 306.767V306.095C843.566 304.695 843.768 303.423 844.171 302.281C844.574 301.127 845.145 300.136 845.884 299.307C846.624 298.478 847.508 297.84 848.538 297.392C849.569 296.944 850.705 296.72 851.948 296.72C853.236 296.72 854.373 296.938 855.358 297.375C856.344 297.8 857.167 298.405 857.828 299.189C858.488 299.973 858.987 300.914 859.323 302.012C859.659 303.098 859.827 304.303 859.827 305.624V307.489H848.066C848.11 307.98 848.201 308.445 848.337 308.884C848.55 309.533 848.858 310.099 849.261 310.581C849.675 311.051 850.168 311.421 850.739 311.69C851.321 311.947 851.982 312.076 852.721 312.076C853.651 312.076 854.491 311.897 855.241 311.538C856.002 311.169 856.663 310.626 857.223 309.909L859.457 312.227C859.076 312.787 858.561 313.325 857.912 313.84C857.273 314.355 856.501 314.775 855.594 315.1C854.687 315.414 853.639 315.571 852.452 315.571ZM848.27 303.709C848.219 303.941 848.176 304.182 848.142 304.431H855.459V304.095C855.437 303.39 855.302 302.746 855.056 302.163C854.81 301.57 854.429 301.099 853.914 300.752C853.399 300.393 852.732 300.214 851.915 300.214C851.254 300.214 850.677 300.36 850.185 300.651C849.703 300.931 849.3 301.334 848.975 301.861C848.662 302.376 848.427 302.992 848.27 303.709ZM874.946 315.235H877.634C879.302 315.235 880.82 314.96 882.186 314.411C883.552 313.863 884.728 313.079 885.714 312.059C886.71 311.04 887.472 309.819 887.998 308.397C888.536 306.963 888.805 305.372 888.805 303.625V302.398C888.805 300.64 888.536 299.049 887.998 297.627C887.472 296.204 886.71 294.983 885.714 293.964C884.728 292.934 883.558 292.144 882.203 291.595C880.859 291.046 879.37 290.772 877.735 290.772H874.946H872.259H870.327V315.235H872.359H874.946ZM874.946 311.606H877.634C879.056 311.606 880.249 311.292 881.212 310.665C882.175 310.026 882.903 309.113 883.396 307.926C883.888 306.728 884.135 305.294 884.135 303.625V302.365C884.135 301.077 883.995 299.94 883.715 298.954C883.435 297.968 883.02 297.14 882.472 296.468C881.934 295.795 881.268 295.286 880.473 294.939C879.678 294.591 878.765 294.418 877.735 294.418H874.946V311.606ZM899.875 315.571C898.498 315.571 897.26 315.347 896.163 314.899C895.065 314.451 894.13 313.829 893.357 313.034C892.596 312.227 892.008 311.292 891.594 310.228C891.19 309.153 890.989 307.999 890.989 306.767V306.095C890.989 304.695 891.19 303.423 891.594 302.281C891.997 301.127 892.568 300.136 893.307 299.307C894.046 298.478 894.931 297.84 895.961 297.392C896.991 296.944 898.128 296.72 899.371 296.72C900.659 296.72 901.796 296.938 902.781 297.375C903.767 297.8 904.59 298.405 905.25 299.189C905.911 299.973 906.409 300.914 906.745 302.012C907.081 303.098 907.249 304.303 907.249 305.624V307.489H895.489C895.533 307.98 895.623 308.445 895.76 308.884C895.972 309.533 896.28 310.099 896.683 310.581C897.098 311.051 897.591 311.421 898.162 311.69C898.744 311.947 899.405 312.076 900.144 312.076C901.073 312.076 901.913 311.897 902.663 311.538C903.425 311.169 904.086 310.626 904.646 309.909L906.88 312.227C906.499 312.787 905.984 313.325 905.334 313.84C904.696 314.355 903.923 314.775 903.016 315.1C902.109 315.414 901.062 315.571 899.875 315.571ZM895.692 303.709C895.642 303.941 895.599 304.182 895.565 304.431H902.882V304.095C902.859 303.39 902.725 302.746 902.479 302.163C902.232 301.57 901.852 301.099 901.336 300.752C900.821 300.393 900.155 300.214 899.338 300.214C898.677 300.214 898.1 300.36 897.607 300.651C897.126 300.931 896.723 301.334 896.398 301.861C896.084 302.376 895.849 302.992 895.692 303.709ZM919.227 309.237C919.429 309.539 919.529 309.881 919.529 310.261C919.529 310.676 919.412 311.046 919.177 311.37C918.941 311.684 918.594 311.936 918.135 312.126C917.676 312.306 917.11 312.395 916.439 312.395C915.845 312.395 915.279 312.306 914.742 312.126C914.216 311.936 913.779 311.628 913.432 311.202C913.084 310.777 912.894 310.211 912.861 309.505H908.611C908.611 310.502 908.907 311.466 909.501 312.395C910.094 313.314 910.968 314.075 912.121 314.68C913.275 315.274 914.686 315.571 916.355 315.571C917.508 315.571 918.544 315.436 919.462 315.168C920.38 314.887 921.17 314.501 921.831 314.008C922.491 313.515 922.995 312.939 923.342 312.278C923.69 311.606 923.863 310.866 923.863 310.06C923.863 308.929 923.578 307.999 923.006 307.271C922.435 306.543 921.64 305.96 920.621 305.523C919.613 305.075 918.432 304.717 917.077 304.448C916.394 304.303 915.817 304.151 915.347 303.995C914.887 303.838 914.523 303.664 914.255 303.474C913.986 303.283 913.79 303.076 913.667 302.852C913.555 302.617 913.499 302.354 913.499 302.062C913.499 301.67 913.605 301.312 913.818 300.987C914.031 300.662 914.344 300.399 914.759 300.197C915.184 299.996 915.705 299.895 916.321 299.895C917.004 299.895 917.57 300.018 918.017 300.265C918.465 300.5 918.796 300.813 919.009 301.206C919.233 301.598 919.345 302.034 919.345 302.516H923.779C923.779 301.418 923.482 300.433 922.889 299.559C922.295 298.674 921.439 297.98 920.319 297.476C919.21 296.972 917.883 296.72 916.338 296.72C915.229 296.72 914.232 296.871 913.348 297.173C912.463 297.464 911.713 297.868 911.097 298.383C910.481 298.887 910.01 299.475 909.686 300.147C909.361 300.808 909.199 301.514 909.199 302.264C909.199 303.037 909.355 303.72 909.669 304.314C909.994 304.896 910.442 305.406 911.013 305.843C911.584 306.268 912.267 306.632 913.062 306.935C913.857 307.237 914.725 307.489 915.666 307.691C916.73 307.915 917.536 308.156 918.085 308.413C918.645 308.66 919.025 308.934 919.227 309.237ZM936.194 314.025C936.386 313.85 936.565 313.669 936.731 313.484L936.731 313.487C936.843 314.193 937.005 314.775 937.218 315.235H941.737V314.949C941.502 314.479 941.323 313.924 941.199 313.286C941.087 312.636 941.031 311.858 941.031 310.95V303.02C941.031 301.609 940.718 300.438 940.091 299.509C939.475 298.579 938.624 297.884 937.537 297.425C936.462 296.955 935.236 296.72 933.859 296.72C932.694 296.72 931.641 296.871 930.701 297.173C929.771 297.476 928.97 297.896 928.298 298.433C927.638 298.96 927.128 299.565 926.77 300.248C926.411 300.92 926.232 301.631 926.232 302.382H930.684C930.684 301.911 930.801 301.497 931.037 301.138C931.272 300.769 931.608 300.483 932.044 300.281C932.492 300.08 933.013 299.979 933.607 299.979C934.279 299.979 934.833 300.102 935.27 300.349C935.706 300.595 936.031 300.942 936.244 301.39C936.457 301.838 936.563 302.37 936.563 302.986V304.163H934.195C932.84 304.163 931.636 304.297 930.583 304.566C929.542 304.823 928.668 305.21 927.963 305.725C927.257 306.229 926.725 306.851 926.367 307.59C926.008 308.329 925.829 309.181 925.829 310.144C925.829 311.186 926.098 312.115 926.635 312.933C927.173 313.751 927.907 314.395 928.836 314.865C929.766 315.336 930.818 315.571 931.994 315.571C932.912 315.571 933.719 315.425 934.413 315.134C935.107 314.843 935.701 314.473 936.194 314.025ZM936.311 310.514C936.364 310.439 936.413 310.364 936.458 310.291C936.496 310.228 936.531 310.167 936.563 310.105V306.8H934.413C933.719 306.8 933.108 306.873 932.582 307.019C932.056 307.153 931.625 307.355 931.289 307.624C930.953 307.881 930.701 308.195 930.533 308.565C930.365 308.923 930.281 309.332 930.281 309.791C930.281 310.239 930.381 310.642 930.583 311.001C930.796 311.359 931.098 311.645 931.49 311.858C931.893 312.059 932.364 312.16 932.901 312.16C933.685 312.16 934.368 312.003 934.951 311.69C935.533 311.365 935.986 310.973 936.311 310.514ZM954.034 309.237C954.235 309.539 954.336 309.881 954.336 310.261C954.336 310.676 954.218 311.046 953.983 311.37C953.748 311.684 953.401 311.936 952.942 312.126C952.483 312.306 951.917 312.395 951.245 312.395C950.652 312.395 950.086 312.306 949.549 312.126C949.022 311.936 948.586 311.628 948.238 311.202C947.891 310.777 947.701 310.211 947.667 309.505H943.417C943.417 310.502 943.714 311.466 944.308 312.395C944.901 313.314 945.775 314.075 946.928 314.68C948.082 315.274 949.493 315.571 951.161 315.571C952.315 315.571 953.351 315.436 954.269 315.168C955.187 314.887 955.977 314.501 956.637 314.008C957.298 313.515 957.802 312.939 958.149 312.278C958.496 311.606 958.67 310.866 958.67 310.06C958.67 308.929 958.384 307.999 957.813 307.271C957.242 306.543 956.447 305.96 955.428 305.523C954.42 305.075 953.239 304.717 951.883 304.448C951.2 304.303 950.624 304.151 950.153 303.995C949.694 303.838 949.33 303.664 949.061 303.474C948.793 303.283 948.597 303.076 948.474 302.852C948.362 302.617 948.305 302.354 948.305 302.062C948.305 301.67 948.412 301.312 948.625 300.987C948.837 300.662 949.151 300.399 949.565 300.197C949.991 299.996 950.512 299.895 951.128 299.895C951.811 299.895 952.376 300.018 952.824 300.265C953.272 300.5 953.603 300.813 953.815 301.206C954.039 301.598 954.151 302.034 954.151 302.516H958.586C958.586 301.418 958.289 300.433 957.696 299.559C957.102 298.674 956.245 297.98 955.125 297.476C954.017 296.972 952.69 296.72 951.144 296.72C950.036 296.72 949.039 296.871 948.154 297.173C947.27 297.464 946.519 297.868 945.903 298.383C945.288 298.887 944.817 299.475 944.492 300.147C944.168 300.808 944.005 301.514 944.005 302.264C944.005 303.037 944.162 303.72 944.476 304.314C944.8 304.896 945.248 305.406 945.819 305.843C946.391 306.268 947.074 306.632 947.869 306.935C948.664 307.237 949.532 307.489 950.472 307.691C951.536 307.915 952.343 308.156 952.891 308.413C953.451 308.66 953.832 308.934 954.034 309.237ZM969.959 297.056V300.248H966.784V309.993C966.784 310.53 966.857 310.945 967.002 311.236C967.148 311.527 967.366 311.723 967.657 311.824C967.949 311.925 968.296 311.975 968.699 311.975C968.99 311.975 969.259 311.958 969.505 311.925C969.617 311.91 969.721 311.894 969.817 311.879C969.932 311.861 970.035 311.842 970.127 311.824L970.144 315.151C969.774 315.274 969.354 315.375 968.884 315.453C968.425 315.532 967.904 315.571 967.322 315.571C966.325 315.571 965.451 315.403 964.701 315.067C963.951 314.719 963.368 314.165 962.954 313.403C962.54 312.63 962.333 311.611 962.333 310.345V300.248H959.544V297.056H962.333V292.586H966.784V297.056H969.959ZM976.662 303.033V315.235H972.227V297.056H976.427L976.565 299.248C976.602 299.183 976.64 299.118 976.679 299.055C977.127 298.316 977.686 297.744 978.358 297.341C979.042 296.927 979.825 296.72 980.71 296.72C980.956 296.72 981.22 296.742 981.5 296.787C981.791 296.82 982.02 296.871 982.188 296.938L982.121 301.071C981.875 301.026 981.595 300.993 981.281 300.97C981.084 300.956 980.894 300.946 980.71 300.941C980.613 300.938 980.518 300.937 980.424 300.937C979.741 300.937 979.142 301.032 978.627 301.222C978.112 301.402 977.681 301.665 977.334 302.012C977.056 302.299 976.832 302.639 976.662 303.033ZM991.764 315.571C990.386 315.571 989.149 315.347 988.052 314.899C986.954 314.451 986.019 313.829 985.246 313.034C984.485 312.227 983.897 311.292 983.482 310.228C983.079 309.153 982.878 307.999 982.878 306.767V306.095C982.878 304.695 983.079 303.423 983.482 302.281C983.886 301.127 984.457 300.136 985.196 299.307C985.935 298.478 986.82 297.84 987.85 297.392C988.88 296.944 990.017 296.72 991.26 296.72C992.548 296.72 993.684 296.938 994.67 297.375C995.655 297.8 996.478 298.405 997.139 299.189C997.8 299.973 998.298 300.914 998.634 302.012C998.97 303.098 999.138 304.303 999.138 305.624V307.489H987.378C987.422 307.98 987.512 308.445 987.648 308.884C987.861 309.533 988.169 310.099 988.572 310.581C988.987 311.051 989.479 311.421 990.05 311.69C990.633 311.947 991.294 312.076 992.033 312.076C992.962 312.076 993.802 311.897 994.552 311.538C995.314 311.169 995.974 310.626 996.534 309.909L998.769 312.227C998.388 312.787 997.873 313.325 997.223 313.84C996.585 314.355 995.812 314.775 994.905 315.1C993.998 315.414 992.951 315.571 991.764 315.571ZM987.581 303.709C987.53 303.941 987.488 304.182 987.453 304.431H994.771V304.095C994.748 303.39 994.614 302.746 994.368 302.163C994.121 301.57 993.74 301.099 993.225 300.752C992.71 300.393 992.044 300.214 991.226 300.214C990.566 300.214 989.989 300.36 989.496 300.651C989.015 300.931 988.611 301.334 988.287 301.861C987.973 302.376 987.738 302.992 987.581 303.709ZM1011.12 309.237C1011.32 309.539 1011.42 309.881 1011.42 310.261C1011.42 310.676 1011.3 311.046 1011.07 311.37C1010.83 311.684 1010.48 311.936 1010.02 312.126C1009.56 312.306 1009 312.395 1008.33 312.395C1007.73 312.395 1007.17 312.306 1006.63 312.126C1006.1 311.936 1005.67 311.628 1005.32 311.202C1004.97 310.777 1004.78 310.211 1004.75 309.505H1000.5C1000.5 310.502 1000.8 311.466 1001.39 312.395C1001.98 313.314 1002.86 314.075 1004.01 314.68C1005.16 315.274 1006.57 315.571 1008.24 315.571C1009.4 315.571 1010.43 315.436 1011.35 315.168C1012.27 314.887 1013.06 314.501 1013.72 314.008C1014.38 313.515 1014.88 312.939 1015.23 312.278C1015.58 311.606 1015.75 310.866 1015.75 310.06C1015.75 308.929 1015.47 307.999 1014.9 307.271C1014.32 306.543 1013.53 305.96 1012.51 305.523C1011.5 305.075 1010.32 304.717 1008.97 304.448C1008.28 304.303 1007.71 304.151 1007.24 303.995C1006.78 303.838 1006.41 303.664 1006.14 303.474C1005.87 303.283 1005.68 303.076 1005.56 302.852C1005.44 302.617 1005.39 302.354 1005.39 302.062C1005.39 301.67 1005.49 301.312 1005.71 300.987C1005.92 300.662 1006.23 300.399 1006.65 300.197C1007.07 299.996 1007.59 299.895 1008.21 299.895C1008.89 299.895 1009.46 300.018 1009.91 300.265C1010.35 300.5 1010.68 300.813 1010.9 301.206C1011.12 301.598 1011.23 302.034 1011.23 302.516H1015.67C1015.67 301.418 1015.37 300.433 1014.78 299.559C1014.18 298.674 1013.33 297.98 1012.21 297.476C1011.1 296.972 1009.77 296.72 1008.23 296.72C1007.12 296.72 1006.12 296.871 1005.24 297.173C1004.35 297.464 1003.6 297.868 1002.99 298.383C1002.37 298.887 1001.9 299.475 1001.57 300.147C1001.25 300.808 1001.09 301.514 1001.09 302.264C1001.09 303.037 1001.24 303.72 1001.56 304.314C1001.88 304.896 1002.33 305.406 1002.9 305.843C1003.47 306.268 1004.16 306.632 1004.95 306.935C1005.75 307.237 1006.61 307.489 1007.55 307.691C1008.62 307.915 1009.42 308.156 1009.97 308.413C1010.53 308.66 1010.91 308.934 1011.12 309.237Z" fill="#483D8B"/>
</svg>
